<svg xmlns="http://www.w3.org/2000/svg" viewBox="0 0 59.6 59.6"><defs><style>.cls-1{fill:#fff;}</style></defs><title>Asset 20</title><g id="Layer_2" data-name="Layer 2"><g id="Layer_1-2" data-name="Layer 1"><path class="cls-1" d="M29.8,0A29.8,29.8,0,1,0,59.6,29.8,29.8,29.8,0,0,0,29.8,0Zm7.7,21.3c2.2-2.4,4.2-3,5.3-3.1.3,0,.5.3.3.5a21.81,21.81,0,0,0-3.3,6.2c-.6.8-1.1,1.7-1.7,2.6-.1-.1-.2-.3-.3-.4a3.08,3.08,0,0,0,.4-2.1,4.06,4.06,0,0,0-1-2.1A4.15,4.15,0,0,0,37.5,21.3Zm-14,2.4c.2-.1.4-.3.6-.4a1.76,1.76,0,0,1-.8-2,2.75,2.75,0,0,1,1-1.6c.2-.1.4-.3.6-.4a1.86,1.86,0,0,1-.6-2,2.75,2.75,0,0,1,1-1.6c.1-.1.3-.2.4-.3l.2-.1-.1-.1a2.09,2.09,0,0,1-.3-1.9,3.55,3.55,0,0,1,1.1-1.6c0-.1.1-.1.2-.2a.6.6,0,0,1,.1-.4c.8-2.3,1.8-3.8,2.8-3.8s2,1.6,2.8,3.8c0,.1.1.3.1.4s.1.1.2.2a4.19,4.19,0,0,1,1.1,1.6,2,2,0,0,1-.3,1.9l-.1.1.2.1c.1.1.3.2.4.3a3.91,3.91,0,0,1,1,1.6,1.86,1.86,0,0,1-.6,2,2.09,2.09,0,0,1,.6.4,2.75,2.75,0,0,1,1,1.6,2.17,2.17,0,0,1-.8,2,2.09,2.09,0,0,1,.6.4,2.6,2.6,0,0,1,.9,1.6,1.87,1.87,0,0,1-.9,2,2.09,2.09,0,0,1,.6.4,1.91,1.91,0,0,1,.7,1.4c-.1.2-.2.3-.3.5a96.61,96.61,0,0,0-5,11.6c-.6,1.6-1.2,3.2-1.8,4.6-.5-1-.9-2.1-1.4-3.2-1.2-2.8-2.5-5.9-3.9-8.9a1.27,1.27,0,0,1,.1-.6,1.79,1.79,0,0,1,.5-.7l.6-.6c.1,0,.1-.1,0-.2a2.67,2.67,0,0,1-.7-1.4,2.09,2.09,0,0,1,.4-1.7l.6-.6c.1,0,.1-.1,0-.2a4,4,0,0,1-.6-1.5,2.62,2.62,0,0,1,.5-1.7l.6-.6c.1,0,.1-.1,0-.2a2.2,2.2,0,0,1-.6-1.5,2.16,2.16,0,0,1,.5-1.7l.6-.6a.14.14,0,0,0,0-.2,2.69,2.69,0,0,1-.5-1.5,1.41,1.41,0,0,1,.1-.9,3,3,0,0,1,.5-.7c.1-.1.2-.3.4-.4s.2-.4.1-.6a1.5,1.5,0,0,1-.4-1.1,2.61,2.61,0,0,1,.3-.8c.1-.2.3-.4.4-.6s.2-.2.1-.3-.2-.2-.3-.2-.3,0-.4.1-.2.1-.3.2a2.09,2.09,0,0,0-.7,1.3,2,2,0,0,0,.3,1.5c.1,0,.1.1,0,.2s-.1.1-.2.1l-.3.3a1.34,1.34,0,0,0-.6.7,2.24,2.24,0,0,0-.1,1.8,2.51,2.51,0,0,0,.4.7c.1,0,.1.1,0,.2s-.1.1-.2.1l-.3.3a1.79,1.79,0,0,0-.5.7,3.08,3.08,0,0,0,0,1.9,2.51,2.51,0,0,0,.4.7c.1,0,.1.1,0,.2l-.2.2-.3.3a1.79,1.79,0,0,0-.5.7,2.65,2.65,0,0,0,.4,2.6c.1,0,.1.1,0,.2s-.1.1-.2.1l-.3.3a1.61,1.61,0,0,0-.4.7,2.79,2.79,0,0,0,.1,1.8,1.46,1.46,0,0,0,.6.9.45.45,0,0,1-.3.3l-.3.3-.1.1-1.8-3.3a2.59,2.59,0,0,1,.7-1.1c.2-.1.4-.3.6-.4a2.15,2.15,0,0,1-.9-2A2.6,2.6,0,0,1,23.5,23.7Zm-6.7-5.4a8.75,8.75,0,0,1,5.3,3.1,4.15,4.15,0,0,0,.3,1.6,3.47,3.47,0,0,0-1,2,3.08,3.08,0,0,0,.4,2.1c-.1.1-.1.2-.2.3-.6-.9-1.3-1.8-1.9-2.6a23.11,23.11,0,0,0-3.2-6A.34.34,0,0,1,16.8,18.3ZM27.1,51.5A3.45,3.45,0,0,1,26,51a10.16,10.16,0,0,1-4.3-5.3c-1.1-3.2-1.4-6.3-2.5-11.3a39.33,39.33,0,0,0-5-12.4.3.3,0,0,1,.2-.5c.1,0,.1.1.2.1,6.9,4.4,11.5,17.8,15,25.7a11.84,11.84,0,0,1-2.1,3.5A.87.87,0,0,0,27.1,51.5ZM45.5,22.1c-1.9,2.5-3.9,7.5-5,12.4S39.2,42.6,38,45.8c-1.9,5.1-5.8,6.5-8.3,6.5a4.48,4.48,0,0,1-1.2-.1c-.2-.1-.4-.3-.2-.5,4.2-4.2,7.9-24.5,16.8-30.1h.2A.3.3,0,0,1,45.5,22.1Z"/></g></g></svg>